<?xml version="1.0" standalone="no"?><!DOCTYPE svg PUBLIC "-//W3C//DTD SVG 1.1//EN" "http://www.w3.org/Graphics/SVG/1.1/DTD/svg11.dtd"><svg t="1552274448667" class="icon" style="" viewBox="0 0 1024 1024" version="1.1" xmlns="http://www.w3.org/2000/svg" p-id="1140" xmlns:xlink="http://www.w3.org/1999/xlink" width="32" height="32"><defs><style type="text/css"></style></defs><path d="M532.964 317.023c-58.259 0-105.72-47.323-105.72-105.581 0-58.259 47.461-105.582 105.72-105.582 58.258 0 105.582 47.323 105.582 105.582 0 58.257-47.324 105.581-105.582 105.581z m-224.862 83.859c-53.138 0-96.45-43.312-96.45-96.449 0-53.276 43.313-96.448 96.45-96.448 53.136 0 96.448 43.312 96.448 96.448 0 53.137-43.313 96.449-96.448 96.449z m-95.621 218.223c-46.911 0-85.104-38.057-85.104-85.104 0-46.909 38.191-85.104 85.104-85.104 46.91 0 85.104 38.195 85.104 85.104-0.001 47.048-38.194 85.104-85.104 85.104z m95.621 216.285c-39.716 0-72.095-32.383-72.095-72.095 0-39.854 32.379-72.096 72.095-72.096 39.715 0 72.093 32.383 72.093 72.096-0.001 39.711-32.379 72.095-72.093 72.095z m224.862 82.75c-34.73 0-62.961-28.229-62.961-62.961s28.229-62.966 62.961-62.966c34.733 0 62.965 28.232 62.965 62.966 0 34.732-28.231 62.961-62.965 62.961z m228.323-106.552c-28.09 0-50.922-22.832-50.922-50.924 0-28.09 22.832-50.922 50.922-50.922 28.095 0 50.927 22.832 50.927 50.922 0 28.092-22.832 50.924-50.927 50.924z m93.548-235.381c-22.974 0-41.794-18.68-41.794-41.789 0-22.973 18.686-41.792 41.793-41.792 22.97 0 41.789 18.683 41.789 41.792 0 22.969-18.819 41.789-41.788 41.789z m-125.927-268.73c0 17.853 14.527 32.379 32.379 32.379 17.854 0 32.384-14.526 32.384-32.379 0-17.851-14.531-32.379-32.384-32.379-17.85 0-32.379 14.527-32.379 32.379z" fill="#bfbfbf" p-id="1141"></path></svg>